<?xml version="1.0" encoding="iso-8859-1"?>
<!-- Generator: Adobe Illustrator 19.0.0, SVG Export Plug-In . SVG Version: 6.00 Build 0)  -->
<svg version="1.1" id="Layer_1" xmlns="http://www.w3.org/2000/svg" xmlns:xlink="http://www.w3.org/1999/xlink"
	 viewBox="0 0 511.999 511.999" style="enable-background:new 0 0 511.999 511.999;" xml:space="preserve">
<g>
	<path style="fill:#971052;" d="M267.807,490.711v17.346c0,0,3.964,5.568,11.399,3.469s33.498-15.65,31.572-19.899
		c-4.685-10.334-16.021-3.327-30.427-2.201C272.422,490.047,267.807,490.711,267.807,490.711z"/>
	<path style="fill:#971052;" d="M228.066,468.408v17.346c0,0,3.965,5.568,11.4,3.469c7.434-2.099,34.16-16.018,31.572-19.899
		c-6.549-9.82-16.021-3.327-30.427-2.201C232.681,467.745,228.066,468.408,228.066,468.408z"/>
</g>
<g>
	<path style="fill:#FEC377;" d="M205.958,236.063l0.978,18.533c0,0,6.168,4.113,6.853,4.798c0.685,0.685,15.956-4.874,15.956-6.626
		s-3.391-12.565-3.391-14.164c0-1.599-1.142-9.824-1.142-9.824L205.958,236.063z"/>
	<path style="fill:#FEC377;" d="M234.579,81.885c-4.292-3.824-28.1-3.534-31.146,34.648c-1.32,16.548-2.906,41.905-2.09,61.806
		c1.272,31.04,4.615,57.722,4.615,57.722s2.791,8.054,18.681,0.592c-2.613-45.183-4.324-45.845-3.268-79.908
		C222.596,117.168,247.431,93.335,234.579,81.885z"/>
</g>
<path style="fill:#FFB657;" d="M216.883,224.372c0,0-12.824,23.265-10.925,53.597c1.355,21.641,19.904,82.096,19.904,82.096
	c-5.219,49.945,2.245,110.658,2.245,110.658s1.757,4.242,6.508,4.571c6.455,0.447,10.481-3.148,10.481-3.148l4.31-150.422
	c5.783,26.148,16.247,60.253,16.247,60.253c-5.219,49.945,2.245,110.658,2.245,110.658s1.721,3.722,6.814,4.863
	c5.542,1.241,10.175-3.44,10.175-3.44l7.504-242.792L216.883,224.372z"/>
<path style="fill:#5AAAE7;" d="M217.851,221.894c-0.541,0.983-14.893,22.331-12.959,53.223c0.775,12.377,4.822,32.896,10.103,51.998
	c4.783,12.181,22.176,13.665,34.672,11.96l0.496-9.028c1.305,4.376,2.59,8.787,3.68,13.01c8.981,8.981,25.103,8.538,37.186,0.078
	l4.608-94.597L217.851,221.894z"/>
<path style="fill:#E5197C;" d="M208.865,239.824c0,0,7.375-20.027,12.968-53.221c4.303-25.533-12.968-55.601-12.968-68.989
	c0-30.124,12.92-37.346,22.685-37.156c0,0,39.1,11.672,69.276,38.37c0,0,6.901,24.241,5.378,32.908
	c-1.733,9.865-18.829,23.801-18.829,34.425c0,13.861,9.487,66.228,9.487,66.228C283.698,276.904,232.46,271.967,208.865,239.824z"/>
<path style="fill:#C71468;" d="M279.344,135.963c-4.73,16.083-2.274,94.216-0.001,130.566c7.797-2.952,11.683-7.713,15.135-14.141
	c0,0-7.101-52.365-7.101-66.228c0-7.643,8.848-17.001,14.458-25.324c0.536-18.785,0.536-34.742-3.319-40.59
	C295.252,115.295,285.436,115.249,279.344,135.963z"/>
<g>
	<path style="fill:#FEC377;" d="M291.81,45.807c0,0,0.97,28.695-6.655,34.459c-7.625,5.765-46.375,2.039-57.077-17.378
		C217.377,43.47,223.282,6.766,247.11,2.762C274.943-1.913,293.493,16.938,291.81,45.807z"/>
	<path style="fill:#FEC377;" d="M239.676,66.451l-5.732,29.196c0,0-6.203,21.87,30.357,7.28c0,0,1.876-25.511,3.703-29.395
		C269.831,69.65,239.676,66.451,239.676,66.451z"/>
</g>
<path style="fill:#5E4C36;" d="M289.363,107.945c-54.139,17.351-66.76-10.207-66.76-10.207
	c-2.926-39.392-7.816-85.329,17.923-94.687c36.113-13.131,59.164,19.657,52.376,31.689c-4.806,8.519-5.609,7.357-5.898,18.208
	C286.304,79.208,288.663,103.568,289.363,107.945z"/>
<g>
	<path style="fill:#FEC377;" d="M287.162,278.804c0,0,0.456,15.792,0.558,17.809c0.103,2.033-1.924,3.419-0.311,7.435
		c0.252,0.628,4.944,3.909,6.631,4.453c1.823,0.589,13.124-7.15,14.789-8.378c1.666-1.228,0.278-11.073,0.159-13.428
		c-0.037-0.72-0.318-12.298-1.716-12.799S287.162,278.804,287.162,278.804z"/>
	<path style="fill:#FEC377;" d="M302.678,120.247c-3.264-4.952-15.175-9.958-21.267,10.756c-6.092,20.713,5.75,147.802,5.75,147.802
		s9.508,11.316,20.11-4.907c0,0-2.1-46.873-2.1-78.088C305.171,164.594,308.824,129.571,302.678,120.247z"/>
</g>
<g>
	<path style="fill:#E0E0E2;" d="M266.359,483.014c0.574,5.988,1.003,9.541,1.021,9.686l0.01,0.081l0.033,0.074
		c0.075,0.161,1.891,3.97,7.173,5.153c0.658,0.147,1.336,0.222,2.018,0.222c0.001,0,0.001,0,0.001,0
		c4.822,0,8.489-3.649,8.642-3.804l0.145-0.146l0.397-12.858C279.903,484.889,272.695,486.248,266.359,483.014z"/>
	<path style="fill:#E0E0E2;" d="M226.417,459.506c0.648,6.948,1.151,11.124,1.171,11.281l0.008,0.071l0.027,0.066
		c0.076,0.186,1.938,4.546,6.954,4.893c0.39,0.026,0.771,0.04,1.144,0.04c5.936,0,9.569-3.184,9.722-3.32l0.167-0.15l0.352-12.292
		C239.867,462.675,232.755,463.078,226.417,459.506z"/>
</g>
<g>
</g>
<g>
</g>
<g>
</g>
<g>
</g>
<g>
</g>
<g>
</g>
<g>
</g>
<g>
</g>
<g>
</g>
<g>
</g>
<g>
</g>
<g>
</g>
<g>
</g>
<g>
</g>
<g>
</g>
</svg>
